<svg xmlns="http://www.w3.org/2000/svg" viewBox="0 0 24 24"><defs><style>.cls-1{fill:#39b54a;}</style></defs><g id="Layer_2" data-name="Layer 2"><g id="svg6"><path id="path4" class="cls-1" d="M12,0C8.74,0,8.33,0,7.05.07A8.82,8.82,0,0,0,4.14.63,6.07,6.07,0,0,0,.63,4.14,8.82,8.82,0,0,0,.07,7.05C0,8.33,0,8.74,0,12S0,15.67.07,17a8.76,8.76,0,0,0,.56,2.91A6,6,0,0,0,2,22a5.91,5.91,0,0,0,2.13,1.38,8.82,8.82,0,0,0,2.91.56C8.33,24,8.74,24,12,24s3.67,0,4.95-.07a8.76,8.76,0,0,0,2.91-.56A6,6,0,0,0,22,22a5.91,5.91,0,0,0,1.38-2.13A8.82,8.82,0,0,0,23.93,17C24,15.67,24,15.26,24,12s0-3.67-.07-4.95a8.76,8.76,0,0,0-.56-2.91A6.07,6.07,0,0,0,19.86.63,8.76,8.76,0,0,0,17,.07C15.67,0,15.26,0,12,0Zm0,2.16c3.2,0,3.59,0,4.85.07a6.61,6.61,0,0,1,2.23.42,3.61,3.61,0,0,1,1.38.89,3.61,3.61,0,0,1,.89,1.38,6.42,6.42,0,0,1,.42,2.23c.05,1.27.07,1.65.07,4.85s0,3.59-.08,4.85a6.61,6.61,0,0,1-.42,2.23,3.75,3.75,0,0,1-.9,1.38,3.61,3.61,0,0,1-1.38.89,6.37,6.37,0,0,1-2.23.42c-1.27.05-1.65.07-4.86.07s-3.59,0-4.86-.08a6.61,6.61,0,0,1-2.23-.42,3.6,3.6,0,0,1-1.38-.9,3.63,3.63,0,0,1-.9-1.38,6.61,6.61,0,0,1-.42-2.23c-.05-1.26-.06-1.65-.06-4.84s0-3.59.06-4.87A6.61,6.61,0,0,1,2.6,4.89a3.56,3.56,0,0,1,.9-1.38,3.56,3.56,0,0,1,1.38-.9A6.8,6.8,0,0,1,7.1,2.19c1.27,0,1.65-.06,4.85-.06Zm0,3.68A6.16,6.16,0,1,0,18.16,12,6.16,6.16,0,0,0,12,5.84ZM12,16a4,4,0,1,1,4-4A4,4,0,0,1,12,16ZM19.85,5.6a1.44,1.44,0,1,1-1.44-1.44A1.45,1.45,0,0,1,19.85,5.6Z"/></g></g></svg>