<?xml version="1.0" encoding="UTF-8" standalone="no"?>
<svg
   xmlns:dc="http://purl.org/dc/elements/1.1/"
   xmlns:cc="http://creativecommons.org/ns#"
   xmlns:rdf="http://www.w3.org/1999/02/22-rdf-syntax-ns#"
   xmlns:svg="http://www.w3.org/2000/svg"
   xmlns="http://www.w3.org/2000/svg"
   xmlns:sodipodi="http://sodipodi.sourceforge.net/DTD/sodipodi-0.dtd"
   xmlns:inkscape="http://www.inkscape.org/namespaces/inkscape"
   role="img"
   viewBox="0 0 24 24"
   version="1.1"
   id="svg6"
   sodipodi:docname="linkedin.svg"
   inkscape:version="1.0.1 (3bc2e813f5, 2020-09-07)"
   inkscape:export-filename="C:\Users\Admin\OneDrive\Desktop\hansiWebsite\images\linkedin.png"
   inkscape:export-xdpi="96"
   inkscape:export-ydpi="96">
  <style
     id="style831"></style>
  <metadata
     id="metadata12">
    <rdf:RDF>
      <cc:Work
         rdf:about="">
        <dc:format>image/svg+xml</dc:format>
        <dc:type
           rdf:resource="http://purl.org/dc/dcmitype/StillImage" />
        <dc:title>LinkedIn icon</dc:title>
      </cc:Work>
    </rdf:RDF>
  </metadata>
  <defs
     id="defs10" />
  <sodipodi:namedview
     pagecolor="#ffffff"
     bordercolor="#666666"
     borderopacity="1"
     objecttolerance="10"
     gridtolerance="10"
     guidetolerance="10"
     inkscape:pageopacity="0"
     inkscape:pageshadow="2"
     inkscape:window-width="1920"
     inkscape:window-height="1001"
     id="namedview8"
     showgrid="false"
     inkscape:zoom="7.65625"
     inkscape:cx="3.2007594"
     inkscape:cy="17.338273"
     inkscape:window-x="-9"
     inkscape:window-y="-9"
     inkscape:window-maximized="1"
     inkscape:current-layer="svg6"
     inkscape:document-rotation="0" />
  <title
     id="title2">LinkedIn icon</title>
  <path
     d="m 20.719127,20.671619 h -3.553999 v -5.569 c 0,-1.328 -0.027,-3.037 -1.852,-3.037 -1.853,0 -2.136,1.445 -2.136,2.939 v 5.667 H 9.6231275 V 9.2196187 h 3.4140005 v 1.5610003 h 0.046 c 0.477,-0.9000003 1.637,-1.8500003 3.37,-1.8500003 3.600999,0 4.266999,2.3700003 4.266999,5.4550003 v 6.286 z M 5.6091275,7.6526187 c -1.144,0 -2.0629999,-0.926 -2.0629999,-2.065 0,-1.138 0.92,-2.063 2.0629999,-2.063 1.14,0 2.064,0.925 2.064,2.063 0,1.139 -0.9250001,2.065 -2.064,2.065 z m 1.782,13.0190003 H 3.8271276 V 9.2196187 H 7.3911275 Z M 22.497127,0.21961898 H 2.0431276 c -0.9789999,0 -1.77099994,0.774 -1.77099994,1.72900002 v 20.542 c 0,0.956 0.79200004,1.729 1.77099994,1.729 H 22.494127 c 0.978,0 1.778001,-0.773 1.778001,-1.729 v -20.542 c 0,-0.95500002 -0.800001,-1.72900002 -1.778001,-1.72900002 z"
     id="path4"
     style="fill:#39b54a;stroke-width:0.999999;fill-opacity:1" />
</svg>
